<svg width="308" height="63" viewBox="0 0 308 63" fill="none" xmlns="http://www.w3.org/2000/svg">
<g clip-path="url(#clip0)">
<path fill-rule="evenodd" clip-rule="evenodd" d="M0 0H308.007V63.008H0V0Z" fill="white" fill-opacity="0.01"/>
<path d="M33.299 58.5069C51.6895 58.5069 66.598 46.4173 66.598 31.504C66.598 16.5907 51.6895 4.50113 33.299 4.50113C14.9085 4.50113 0 16.5907 0 31.504C0 46.4173 14.9085 58.5069 33.299 58.5069Z" fill="#00AED6"/>
<path fill-rule="evenodd" clip-rule="evenodd" d="M52.7034 30.6652C52.5933 29.0226 51.6836 27.4811 50.1716 26.3753C48.6596 25.2695 46.6672 24.6884 44.6268 24.7582H23.5943C23.4113 24.7577 23.2303 24.7281 23.0615 24.6712C22.8927 24.6144 22.7394 24.5313 22.6105 24.4267C22.4815 24.3221 22.3795 24.1981 22.31 24.0617C22.2406 23.9253 22.2052 23.7793 22.2058 23.6319C22.2058 23.0097 22.8267 22.5056 23.5943 22.5056H44.9055C44.8523 21.3712 44.3537 20.2795 43.4813 19.3879C42.6089 18.4962 41.4077 17.8505 40.0507 17.5438C33.8414 16.6547 27.4862 16.6547 21.2769 17.5438C19.5473 17.8927 17.9876 18.6522 16.8003 19.7237C15.613 20.7952 14.8527 22.1294 14.6181 23.5532C13.633 28.853 13.633 34.2415 14.6181 39.5414C14.9792 41.044 15.8979 42.4228 17.2527 43.4958C18.6075 44.5688 20.3346 45.2854 22.2058 45.5508C29.9135 46.3273 37.7112 46.3273 45.4188 45.5508C47.095 45.2693 48.6188 44.5702 49.7743 43.5524C50.9299 42.5347 51.6587 41.25 51.8576 39.8801C52.5421 36.84 52.8305 33.7526 52.7034 30.6652ZM45.7953 34.4457V35.4459C45.7959 35.5933 45.7605 35.7394 45.6911 35.8757C45.6216 36.0121 45.5195 36.1361 45.3906 36.2407C45.2617 36.3453 45.1084 36.4284 44.9396 36.4852C44.7708 36.5421 44.5898 36.5717 44.4068 36.5722C44.2238 36.5717 44.0427 36.5421 43.8739 36.4852C43.7051 36.4284 43.5519 36.3453 43.423 36.2407C43.294 36.1361 43.1919 36.0121 43.1225 35.8757C43.0531 35.7394 43.0177 35.5933 43.0183 35.4459V34.4457C42.7021 34.219 42.4788 33.9203 42.3782 33.5891C42.2776 33.2579 42.3044 32.9098 42.455 32.5912C42.6056 32.2725 42.8729 31.9983 43.2215 31.8048C43.5701 31.6113 43.9835 31.5078 44.4068 31.5079C44.8301 31.5078 45.2435 31.6113 45.592 31.8048C45.9406 31.9983 46.2079 32.2725 46.3585 32.5912C46.5092 32.9098 46.5359 33.2579 46.4353 33.5891C46.3347 33.9203 46.1115 34.219 45.7953 34.4457V34.4457Z" fill="white"/>
<path d="M92.5977 44.9326C93.9809 46.5381 95.8491 47.8332 98.0261 48.6958C100.203 49.5585 102.617 49.9601 105.04 49.863C110.843 49.863 115.107 46.8583 115.107 42.7746V40.6205H114.965C111.787 43.1408 107.45 44.4561 103.016 44.2513C99.5675 44.3278 96.1563 43.6598 93.1363 42.3164C90.1162 40.9731 87.5974 39.0034 85.8411 36.6116C84.0728 34.2129 83.1246 31.4798 83.0929 28.6903C83.0611 25.9007 83.9469 23.1541 85.6602 20.7296C87.364 18.3135 89.8391 16.3083 92.8289 14.9221C95.8187 13.5358 99.2145 12.819 102.664 12.8458C104.903 12.7302 107.147 12.982 109.262 13.5858C111.376 14.1896 113.316 15.1329 114.965 16.3585H115.107V13.4128H125.031V42.6643C125.031 51.1664 116.72 57.0616 105.04 57.0616C101.265 57.2258 97.4958 56.6635 94.0442 55.4213C90.5925 54.179 87.5577 52.2926 85.1908 49.9181L92.5977 44.9326ZM114.691 26.7311C114.691 23.3327 109.934 20.2138 104.625 20.2138C97.912 20.2138 93.4386 23.502 93.4386 28.4324C93.243 30.7715 94.3186 33.0595 96.3964 34.6859C97.4189 35.4899 98.6482 36.1031 99.9974 36.4821C101.347 36.8611 102.783 36.9967 104.204 36.8794C110.007 36.8794 114.691 33.9338 114.691 30.2478V26.7311ZM151.163 12.5622C163.258 12.5622 172.068 19.5325 172.068 28.4324C172.068 37.3322 163.258 44.3064 151.163 44.3064C147.576 44.4933 143.994 43.8811 140.81 42.537C137.626 41.1929 134.963 39.1687 133.113 36.6864C131.251 34.1951 130.267 31.3422 130.267 28.4343C130.267 25.5265 131.251 22.6735 133.113 20.1823C134.963 17.6999 137.626 15.6758 140.81 14.3317C143.994 12.9876 147.576 12.3754 151.163 12.5622V12.5622ZM151.163 19.9263C148.376 19.9492 145.714 20.8618 143.762 22.464C141.809 24.0661 140.726 26.2268 140.749 28.4717C140.752 30.7166 141.86 32.8689 143.831 34.4563C145.802 36.0437 148.474 36.9364 151.261 36.9384C154.048 36.9259 156.715 36.0232 158.676 34.4285C160.638 32.8337 161.734 30.6772 161.723 28.4324C161.788 27.2978 161.558 26.1648 161.049 25.1057C160.54 24.0466 159.762 23.0846 158.765 22.2812C157.774 21.4816 156.585 20.8591 155.275 20.454C153.965 20.049 152.564 19.8705 151.163 19.9302V19.9263ZM177.436 13.4128H187.361V16.0749H187.508C189.109 14.8788 190.991 13.9521 193.043 13.3489C195.094 12.7458 197.275 12.4783 199.457 12.5622C210.115 12.7197 218.661 19.7609 218.68 28.4048C218.7 37.0526 210.183 44.1174 199.525 44.3064C195.32 44.3852 191.214 43.2629 187.923 41.1324H187.782V56.211H177.436V13.4128ZM197.853 19.9893C192.397 19.9893 187.782 23.1043 187.782 26.5067V30.3029C187.782 33.9338 192.26 36.9345 197.916 36.9345C200.697 36.9199 203.356 36.0165 205.31 34.4229C207.264 32.8293 208.352 30.6759 208.335 28.4363C208.336 27.327 208.065 26.2285 207.539 25.2035C207.012 24.1784 206.24 23.247 205.267 22.4622C204.294 21.6775 203.138 21.0548 201.866 20.6299C200.594 20.2049 199.23 19.9859 197.853 19.9854V19.9893ZM238.613 25.5419C245.394 24.8055 247.423 24.0139 247.423 22.482C247.423 20.4973 244.831 19.308 240.852 19.308C238.769 19.1695 236.693 19.6362 235 20.6236C233.307 21.611 232.108 23.0539 231.621 24.6913L221.833 23.0491C223.232 16.9255 230.995 12.5622 240.568 12.5622C251.402 12.5622 258.12 17.0397 258.12 24.3487V43.4558H248.816V40.1676H248.669C247.12 41.5866 245.185 42.6984 243.015 43.4162C240.845 44.1341 238.498 44.4388 236.158 44.3064C227.979 44.3064 222.322 40.6795 222.322 35.3475C222.322 29.7358 226.933 26.8454 238.608 25.5419H238.613ZM248.259 28.7159H248.122C247.207 29.7949 245.252 30.4171 240.221 31.1575C234.139 32.0632 231.973 33.0241 231.973 34.7804C231.973 36.5958 233.792 37.3913 237.703 37.3913C243.648 37.3913 248.263 35.1782 248.263 32.2877V28.7159H248.259ZM277.808 41.8137L260.681 13.4128H272.078L283.332 33.0241H283.469L294.587 13.4128H306.051L280.399 56.2189H269.003L277.808 41.8137Z" fill="black"/>
</g>
<defs>
<clipPath id="clip0">
<rect width="308" height="63" fill="white"/>
</clipPath>
</defs>
</svg>
